<svg id="van" xmlns="http://www.w3.org/2000/svg" width="244.588" height="149.175" viewBox="0 0 4181 2550">
  <metadata><?xpacket begin="﻿" id="W5M0MpCehiHzreSzNTczkc9d"?>
<x:xmpmeta xmlns:x="adobe:ns:meta/" x:xmptk="Adobe XMP Core 5.6-c142 79.160924, 2017/07/13-01:06:39        ">
   <rdf:RDF xmlns:rdf="http://www.w3.org/1999/02/22-rdf-syntax-ns#">
      <rdf:Description rdf:about=""/>
   </rdf:RDF>
</x:xmpmeta>





















<?xpacket end="w"?></metadata>
<defs>
    <style>
      .cls-1 {
        fill: #243a6d;
        fill-rule: evenodd;
      }
    </style>
  </defs>
  <path id="van-2" data-name="van" class="cls-1" d="M1294.06,1642.48l666.39-272.62a10.012,10.012,0,0,1,13.05,5.47l22.71,55.53a9.993,9.993,0,0,1-5.47,13.04l-666.39,272.62a10,10,0,0,1-13.04-5.47l-22.72-55.53A10,10,0,0,1,1294.06,1642.48ZM788.58,447.413L834.617,427.9a10,10,0,0,1,13.109,5.305L1374.52,1676.18a10,10,0,0,1-5.3,13.11l-46.04,19.51a10,10,0,0,1-13.11-5.3L783.276,460.522A10,10,0,0,1,788.58,447.413ZM0,1334q15-19.995,30-40h90V774a80.623,80.623,0,0,1,80-40H800q155,355,310,710v80c-88.02-25.24-183.747-12.4-260,40-92.069,63.27-141.8,174.87-130,290q-155-4.995-310-10c-5.692-75.45-43.127-148.87-110-190-88.033-54.15-211.93-41.63-300,40V1334Zm230-40V834H720q130,295.005,260,590H620q-25-64.995-50-130H230Zm1008.56-277.95,408.03-179.5c15.37-6.76,33.06.8,39.51,16.885l171.47,427.158c6.45,16.08-.77,34.6-16.13,41.36l-408.03,179.5c-15.37,6.76-33.06-.8-39.51-16.88l-171.47-427.16C1215.98,1041.32,1223.2,1022.81,1238.56,1016.05ZM175,1694A165,165,0,1,1,10,1859,165,165,0,0,1,175,1694Zm845-110c121.5,0,220,98.5,220,220s-98.5,220-220,220-220-98.5-220-220S898.5,1584,1020,1584Zm2692.47,3.13c120.66,0,218.47,97.79,218.47,218.43S3833.13,2024,3712.47,2024,3494,1926.2,3494,1805.56,3591.81,1587.13,3712.47,1587.13Zm0,124.81a93.625,93.625,0,1,1-93.63,93.62A93.613,93.613,0,0,1,3712.47,1711.94ZM2651.3,1587.13c120.66,0,218.48,97.79,218.48,218.43S2771.96,2024,2651.3,2024s-218.49-97.8-218.49-218.44S2530.63,1587.13,2651.3,1587.13Zm0,124.81a93.625,93.625,0,1,1-93.64,93.62A93.631,93.631,0,0,1,2651.3,1711.94Zm-284.81,120.92c-49.84,15.26-103.71,3.65-140.45-31.2-29.9-28.36-44.78-68.54-42.92-109.23V654.825A120.038,120.038,0,0,1,2304.06,530h682.75c60.99-.053,120.22,20.26,167.76,58.512a265.7,265.7,0,0,1,85.83,124.825h226.28c34.65,0,63.67,9.911,93.63,27.305,38.71,22.473,61.12,54.345,74.13,74.115,45.65,69.383,152.73,258.563,230.18,401.783q99.48,25.35,198.97,50.71c8.08,2.06,22.64,6.76,35.11,19.5,10.31,10.53,16.59,24,19.51,39.01v261.35c20.54-2.01,42.25,3.49,54.62,19.51a46.035,46.035,0,0,1,7.8,15.6v163.83a46.075,46.075,0,0,1-39.01,50.71H3997.27c10.23-178.89-137.71-323.54-300.41-315.96-151.93,7.07-281.05,145.25-273.1,312.06H2936.09c13.19-170.33-118.42-313.73-273.1-319.86C2500.34,1506.54,2353.16,1653.47,2366.49,1832.86Zm940.23-920.583a22.239,22.239,0,0,1,7.8-11.7h183.37a31.019,31.019,0,0,1,5.79,2.617,31.472,31.472,0,0,1,9.82,9.086q78.015,138.485,156.05,276.953a15.727,15.727,0,0,1-11.7,23.41H3330.13a20.061,20.061,0,0,1-23.41-19.51V912.277Z"/>
</svg>
