<svg id="stop" xmlns="http://www.w3.org/2000/svg" width="211.594" height="64.525" viewBox="0 0 3617 1103">
  <metadata><?xpacket begin="﻿" id="W5M0MpCehiHzreSzNTczkc9d"?>
<x:xmpmeta xmlns:x="adobe:ns:meta/" x:xmptk="Adobe XMP Core 5.6-c142 79.160924, 2017/07/13-01:06:39        ">
   <rdf:RDF xmlns:rdf="http://www.w3.org/1999/02/22-rdf-syntax-ns#">
      <rdf:Description rdf:about=""/>
   </rdf:RDF>
</x:xmpmeta>





















<?xpacket end="w"?></metadata>
<defs>
    <style>
      .cls-1 {
        fill: #243a6d;
        fill-rule: evenodd;
      }
    </style>
  </defs>
  <path id="_1_copy" data-name="1 copy" class="cls-1" d="M3219.98-.013C3439.25-.013,3617,176.042,3617,393.216c0,101.407-41.24,177.156-67.64,219.622-90.62,145.756-207.63,307.383-329.38,459.662-118.98-151.436-229.14-304.647-324-451.98-27.86-43.265-77.29-122.067-73.01-227.3C2829.81,224.761,2976.95-.013,3219.98-0.013Zm-0.01,207.419c104.69,0,189.56,84.821,189.56,189.453s-84.87,189.454-189.56,189.454-189.56-84.822-189.56-189.454S3115.28,207.406,3219.97,207.406ZM1656.5,798a152.5,152.5,0,1,1-152.44,152.5A152.47,152.47,0,0,1,1656.5,798Zm0,76.25a76.25,76.25,0,1,1-76.22,76.25A76.238,76.238,0,0,1,1656.5,874.25Zm414.09,76.25a76.25,76.25,0,1,1-76.21,76.25A76.232,76.232,0,0,1,2070.59,950.5Zm337.91,0a76.25,76.25,0,1,1-76.22,76.25A76.238,76.238,0,0,1,2408.5,950.5Zm337.91,0a76.25,76.25,0,1,1-76.22,76.25A76.238,76.238,0,0,1,2746.41,950.5ZM152.438,798A152.5,152.5,0,1,1,0,950.5,152.469,152.469,0,0,1,152.438,798Zm0,76.25A76.25,76.25,0,1,1,76.219,950.5,76.234,76.234,0,0,1,152.438,874.25ZM566.563,950.5a76.25,76.25,0,1,1-76.219,76.25A76.234,76.234,0,0,1,566.563,950.5Zm337.906,0a76.25,76.25,0,1,1-76.219,76.25A76.235,76.235,0,0,1,904.469,950.5Zm337.911,0a76.25,76.25,0,1,1-76.22,76.25A76.23,76.23,0,0,1,1242.38,950.5Z"/>
</svg>
