<svg id="time" xmlns="http://www.w3.org/2000/svg" width="111.15" height="117.234" viewBox="0 0 1900 2004">
  <metadata><?xpacket begin="﻿" id="W5M0MpCehiHzreSzNTczkc9d"?>
<x:xmpmeta xmlns:x="adobe:ns:meta/" x:xmptk="Adobe XMP Core 5.6-c142 79.160924, 2017/07/13-01:06:39        ">
   <rdf:RDF xmlns:rdf="http://www.w3.org/1999/02/22-rdf-syntax-ns#">
      <rdf:Description rdf:about=""/>
   </rdf:RDF>
</x:xmpmeta>





















<?xpacket end="w"?></metadata>
<defs>
    <style>
      .cls-1 {
        fill: #243a6d;
        fill-rule: evenodd;
      }
    </style>
  </defs>
  <path id="time-2" data-name="time" class="cls-1" d="M1470.6,256.031l44.11,32.653a70.57,70.57,0,0,1,14.74,98.7l-9.33,12.6a70.552,70.552,0,0,1-98.69,14.738l-44.11-32.653a70.577,70.577,0,0,1-14.74-98.7l9.33-12.605A70.553,70.553,0,0,1,1470.6,256.031Zm233.78,219.291,31.95,44.622a70.574,70.574,0,0,1-16.28,98.46l-12.75,9.13a70.557,70.557,0,0,1-98.45-16.283l-31.95-44.622a70.574,70.574,0,0,1,16.28-98.46l12.75-9.13A70.557,70.557,0,0,1,1704.38,475.322Zm149.56,290.714,14.95,52.81a70.577,70.577,0,0,1-48.67,87.122l-15.09,4.272a70.555,70.555,0,0,1-87.11-48.674l-14.95-52.809a70.562,70.562,0,0,1,48.67-87.122l15.08-4.272A70.564,70.564,0,0,1,1853.94,766.036Zm45.8,317.254-4.7,54.69a70.562,70.562,0,0,1-76.35,64.26l-15.62-1.34a70.578,70.578,0,0,1-64.26-76.36l4.7-54.68a70.562,70.562,0,0,1,76.35-64.26l15.62,1.34A70.562,70.562,0,0,1,1899.74,1083.29Zm-64.09,313.38-19.76,51.2a70.556,70.556,0,0,1-91.24,40.41l-14.63-5.65a70.58,70.58,0,0,1-40.41-91.25l19.77-51.2a70.564,70.564,0,0,1,91.24-40.41l14.63,5.65A70.567,70.567,0,0,1,1835.65,1396.67Zm-166.4,278.61-35.8,41.6a70.55,70.55,0,0,1-99.51,7.45l-11.88-10.23a70.559,70.559,0,0,1-7.45-99.51l35.8-41.6a70.56,70.56,0,0,1,99.51-7.46l11.88,10.23A70.572,70.572,0,0,1,1669.25,1675.28ZM481.7,1434.26c-1.957-.25-11.377-1.17-15.68-7.84-3.1-4.81-2.86-11.52,0-19.6l23.52-74.49a22.347,22.347,0,0,1,23.52-7.84q9.8,1.965,19.6,3.92c11.988-42.46,25.333-84.04,39.2-121.53,6.614-17.88,15.1-38.71,35.28-58.81,19.954-19.87,45.54-32.86,74.48-39.2l184.239-39.21q7.839-21.555,15.68-43.12l-137.2-168.576a101.933,101.933,0,0,1-23.52-47.045c-4.606-22.456-.238-40.722,3.92-54.885,10.684-36.39,36.239-107.338,58.8-164.656l-23.52-3.921a29.231,29.231,0,0,1-7.84-11.761,29.667,29.667,0,0,1,0-19.6l23.52-62.726c0.85-2.268,2.472-8.237,7.84-11.761,6.139-4.031,14.659-3.378,23.52,0l623.281,211.7a23.894,23.894,0,0,1,11.76,11.762c3.13,6.913,1.7,13.79,0,19.6-3.79,12.881-14.32,40.678-23.52,62.726-1.2,5.29-3.72,9.733-7.84,11.761-4.46,2.192-9.08.758-11.76,0a163.9,163.9,0,0,0-19.6-3.921c-6.71,18.33-13.18,36.453-19.6,54.886-5.47,15.709-10.78,31.285-15.99,46.9-5.58,16.766-8.46,30.931-15.37,47.193-10.81,25.395-25.14,45.507-35.28,54.885-22.21,20.533-45.95,27.1-62.72,31.363-55.71,14.14-128.37,29.94-196,43.12q-5.88,23.535-11.76,47.05,68.6,86.25,137.2,172.5c7.94,9.98,15.59,23.73,19.6,43.12a108.865,108.865,0,0,1,0,43.12q-25.485,76.455-50.96,152.9,9.8,3.915,19.6,7.84a16.64,16.64,0,0,1,7.84,27.44q-11.76,35.28-23.52,70.57a18.73,18.73,0,0,1-27.44,3.92C978.046,1598.2,520.729,1439.32,481.7,1434.26Zm105.84-86.25q23.52-66.645,47.039-133.29a77.492,77.492,0,0,1,27.441-31.36c11.836-7.73,27.284-11.1,31.36-11.77,35.184-5.78,137.311-31.61,199.919-47.04a34.431,34.431,0,0,0,27.439-31.36q9.8-29.415,19.6-58.81a28.916,28.916,0,0,0-3.919-35.283q-74.481-92.129-148.96-184.258a29.231,29.231,0,0,1-7.84-11.761c-2.421-6.807-1.689-13.453,0-19.6,5.839-21.252,39.523-115.47,58.8-168.576L1320.58,779.556Q1295.095,856,1269.62,932.451a71.488,71.488,0,0,1-19.6,27.443c-11.43,9.858-23.19,13.558-31.36,15.681-35.42,9.2-134.37,29.5-203.84,43.125a46.055,46.055,0,0,0-19.6,7.84c-5.878,4.17-10.869,10.01-15.679,19.6-8.809,17.57-15.794,45.5-19.6,66.65a30.416,30.416,0,0,0-3.92,15.68,30.791,30.791,0,0,0,7.839,19.6q72.513,88.215,145.042,176.42a42.054,42.054,0,0,1,11.76,19.6,42.734,42.734,0,0,1-3.92,31.36l-47.04,137.22Q828.619,1430.335,587.54,1348.01Zm752.64,399.88c-145.2,80.55-307.63,117.91-470.4,101.93-275.4-27.03-554.752-208.85-670.318-513.57-100.33-264.55-54.072-569.874,129.36-791.917C480.729,360.448,707.193,257.451,944.258,254.225q1.961,43.124,3.92,86.248c-2.036,8.043,1.481,16.107,7.841,19.6,7.758,4.264,18.685,1.174,23.52-7.841q90.152-76.447,180.321-152.895a28.424,28.424,0,0,0,0-39.2Q1067.73,81.728,975.618,3.32A18.1,18.1,0,0,0,959.939-.6c-4.425.866-8.355,3.6-11.761,7.841V105.25C687.568,108.243,437.713,213.221,258.261,403.2,40.985,633.221-45.664,958.623,23.062,1261.76c87.967,388.01,409.832,662.75,760.477,725.27,213.213,38.02,430.781-2.95,623.281-105.85,38.02-18,55.07-60.4,43.12-94.09C1435.99,1747.82,1384.5,1725.59,1340.18,1747.89Z"/>
</svg>
